<svg xmlns="http://www.w3.org/2000/svg" width="100" height="35" viewBox="0 0 100 35">
  <g id="Logo_original" transform="translate(-573.033 -181.455)">
    <g id="Grupo_7" data-name="Grupo 7" transform="translate(610.033 183.349)">
      <path id="Caminho_8" data-name="Caminho 8" d="M592.8,195.192l.515-.28.815,1.4a10.09,10.09,0,0,0-3.235-10.178,10.365,10.365,0,1,0-5.593,18.123v.614a10.809,10.809,0,0,1-10.052-4.272A11.056,11.056,0,0,1,587.385,183.4a10.832,10.832,0,0,1,6.261,4.963,11.056,11.056,0,0,1,1.28,7.987l1.242-.945.392.441c-.682.535-1.342,1.057-2.005,1.574-.231.18-.419.137-.563-.124C593.6,196.612,593.214,195.926,592.8,195.192Z" transform="translate(-573.033 -182.897)" fill="#00b65b" />
      <g id="Grupo_5" data-name="Grupo 5" transform="translate(14.845 15.21)">
        <path id="Caminho_9" data-name="Caminho 9" d="M585.783,199.648a1.381,1.381,0,0,1-1.453-1.243h.566a.873.873,0,0,0,.887.744v-1.677l-.177-.05c-.709-.2-1.152-.568-1.152-1.178a1.327,1.327,0,0,1,1.329-1.256v-.517h.363v.51a1.34,1.34,0,0,1,1.391,1.192h-.532a.857.857,0,0,0-.859-.7v1.575l.177.049c.469.124,1.276.4,1.276,1.25,0,.69-.523,1.24-1.453,1.3v.493h-.363Zm0-4.172c-.488.064-.8.357-.8.741,0,.448.461.635.8.73Zm1.286,2.858c0-.452-.426-.62-.9-.753l-.019-.005v1.573C586.682,199.09,587.069,198.78,587.069,198.334Z" transform="translate(-584.33 -194.471)" fill="#00b65b" />
      </g>
      <g id="Grupo_6" data-name="Grupo 6" transform="translate(10.643 3.442)">
        <rect fill="#00b65b" id="Ponteiro_minutos" data-name="Retângulo 470" width="0.9" height="8.042" transform="translate(1.388)">
          <animateTransform
            attributeName="transform"
            attributeType="XML"
            type="rotate"
            from="0 0 8.042"
            to="360 0 8.042"
            dur="3s" 
            repeatCount="indefinite"
          /> 
        </rect>
        <rect id="Retângulo_471" data-name="Retângulo 471" width="0.9" height="5.992" transform="matrix(0.651, 0.759, -0.759, 0.651, 4.548, 3.518)" fill="#00b65b" />
      </g>
    </g>
  </g>
</svg>

